<svg width="32" height="32" viewBox="0 0 32 32" fill="none" xmlns="http://www.w3.org/2000/svg">
<g clip-path="url(#clip0_178_895)">
<path d="M28.8 3.19995H3.2C2.35372 3.20302 1.54322 3.54166 0.946301 4.14157C0.349385 4.74148 0.0148051 5.55367 0.0159637 6.39995L0 25.6C0.00248857 26.4479 0.34043 27.2604 0.940007 27.8599C1.53959 28.4595 2.35207 28.7975 3.2 28.8H28.8C29.6479 28.7975 30.4604 28.4595 31.06 27.8599C31.6596 27.2604 31.9975 26.4479 32 25.6V6.39995C31.9975 5.55202 31.6596 4.73954 31.06 4.13996C30.4604 3.54038 29.6479 3.20244 28.8 3.19995ZM28.8 9.59995L16 17.6L3.2 9.59995V6.39995L16 14.4L28.8 6.39995V9.59995Z" fill="white"/>
</g>
<defs>
<clipPath id="clip0_178_895">
<rect width="32" height="25.6" fill="white" transform="translate(0 3.19995)"/>
</clipPath>
</defs>
</svg>
