<svg width="24" height="22" viewBox="0 0 24 22" fill="none" xmlns="http://www.w3.org/2000/svg">
<g clip-path="url(#clip0_10_38)">
<path d="M19.2 3.20001H4.8C4.32397 3.20181 3.86806 3.40023 3.53229 3.75174C3.19653 4.10325 3.00833 4.57914 3.00898 5.07501L3 16.325C3.0014 16.8218 3.19149 17.2979 3.52875 17.6492C3.86602 18.0005 4.32304 18.1986 4.8 18.2H19.2C19.677 18.1986 20.134 18.0005 20.4712 17.6492C20.8085 17.2979 20.9986 16.8218 21 16.325V5.07501C20.9986 4.57818 20.8085 4.10211 20.4712 3.7508C20.134 3.39948 19.677 3.20147 19.2 3.20001ZM19.2 6.95001L12 11.6375L4.8 6.95001V5.07501L12 9.76251L19.2 5.07501V6.95001Z" fill="#1E1E1E"/>
</g>
<defs>
<clipPath id="clip0_10_38">
<rect width="18" height="15" fill="white" transform="translate(3 3.20001)"/>
</clipPath>
</defs>
</svg>
