<svg width="24" height="24" viewBox="0 0 24 24" fill="none" xmlns="http://www.w3.org/2000/svg">
<g clip-path="url(#clip0_10_43)">
<path fill-rule="evenodd" clip-rule="evenodd" d="M12 0.404114C5.37188 0.404114 0 5.72625 0 12.293C0 17.5436 3.43875 21.9996 8.20594 23.5758C8.80406 23.6864 9.02765 23.3153 9.02765 23.0029C9.02765 22.7162 9.01454 21.7846 9.01454 20.788C5.67421 21.5046 4.97063 19.3873 4.97063 19.3873C4.42501 18.0127 3.63562 17.6481 3.63562 17.6481C2.54391 16.912 3.71438 16.925 3.71438 16.925C4.91765 17.0096 5.55562 18.1497 5.55562 18.1497C6.62719 19.9674 8.36343 19.4393 9.04734 19.1398C9.15235 18.3712 9.46827 17.8501 9.81 17.5501C7.14704 17.2506 4.33922 16.2275 4.33922 11.6739C4.33922 10.3778 4.80609 9.31567 5.57531 8.48205C5.45015 8.18251 5.04281 6.97087 5.69343 5.33569C5.69343 5.33569 6.69937 5.01662 8.99439 6.55382C9.95439 6.29329 10.98 6.15629 11.9995 6.15629C13.0186 6.1628 14.0447 6.29329 15.0047 6.55382C17.2931 5.01662 18.2991 5.33569 18.2991 5.33569C18.9502 6.97087 18.5424 8.18251 18.4172 8.48205C19.1864 9.31614 19.6533 10.3778 19.6533 11.6739C19.6533 16.2405 16.8455 17.2436 14.1759 17.5371C14.6034 17.9086 14.9911 18.6317 14.9911 19.7389C14.9911 21.3286 14.978 22.6118 14.978 23.0029C14.978 23.3218 15.195 23.6869 15.7997 23.5758C20.5678 21.9996 24 17.5501 24 12.293C24 5.72625 18.6281 0.404114 12 0.404114Z" fill="#181616"/>
<path d="M4.54369 17.4721C4.51745 17.5306 4.42557 17.5501 4.3398 17.5111C4.25449 17.4721 4.20151 17.3941 4.23479 17.3351C4.26103 17.2766 4.35291 17.2571 4.4387 17.2961C4.52401 17.3351 4.57652 17.4136 4.54369 17.4721Z" fill="#181616"/>
<path d="M5.03015 18.0126C4.97107 18.0647 4.85904 18.0387 4.78686 17.9606C4.70812 17.8761 4.69498 17.7651 4.75406 17.7131C4.81311 17.6611 4.91859 17.6871 4.99734 17.7651C5.07609 17.8496 5.0892 17.9606 5.03015 18.0126Z" fill="#181616"/>
<path d="M5.50358 18.6968C5.4314 18.7488 5.3128 18.7033 5.23405 18.5927C5.16185 18.4887 5.16185 18.3582 5.23405 18.3062C5.30624 18.2542 5.42483 18.2997 5.50358 18.4037C5.58233 18.5143 5.58233 18.6448 5.50358 18.6968Z" fill="#181616"/>
<path d="M6.15468 19.3548C6.08907 19.4263 5.95077 19.4068 5.84579 19.3093C5.74077 19.2118 5.71406 19.0748 5.78017 19.0032C5.84626 18.9317 5.99062 18.9512 6.08907 19.0488C6.19406 19.1528 6.22032 19.2893 6.15468 19.3548Z" fill="#181616"/>
<path d="M7.04859 19.7389C7.02232 19.8299 6.88405 19.8759 6.74623 19.8364C6.60796 19.7974 6.52265 19.6864 6.54889 19.5954C6.57515 19.5044 6.71342 19.4584 6.85124 19.4979C6.98295 19.5369 7.07483 19.6479 7.04859 19.7389Z" fill="#181616"/>
<path d="M8.02822 19.8108C8.03479 19.9084 7.91665 19.9934 7.77181 19.9934C7.62697 19.9999 7.51539 19.9153 7.50885 19.8173C7.50885 19.7198 7.6204 19.6348 7.76524 19.6348C7.9101 19.6348 8.02822 19.7128 8.02822 19.8108Z" fill="#181616"/>
<path d="M8.94239 19.6609C8.96206 19.7584 8.86364 19.8564 8.71878 19.8824C8.58051 19.9084 8.44925 19.8499 8.43612 19.7519C8.41645 19.6544 8.52144 19.5564 8.65973 19.5304C8.798 19.5044 8.92269 19.5634 8.94239 19.6609Z" fill="#181616"/>
</g>
<defs>
<clipPath id="clip0_10_43">
<rect width="24" height="24" fill="white"/>
</clipPath>
</defs>
</svg>
